<svg width="24" height="24" viewBox="0 0 24 24" fill="none" xmlns="http://www.w3.org/2000/svg">
<g clip-path="url(#clip0_169_4068)">
<path fill-rule="evenodd" clip-rule="evenodd" d="M12.7071 15.7072C12.5196 15.8947 12.2653 16 12.0001 16C11.7349 16 11.4806 15.8947 11.2931 15.7072L5.6361 10.0502C5.54059 9.95797 5.46441 9.84762 5.412 9.72562C5.35959 9.60361 5.332 9.47239 5.33085 9.33961C5.32969 9.20684 5.355 9.07516 5.40528 8.95226C5.45556 8.82936 5.52981 8.71771 5.6237 8.62382C5.7176 8.52993 5.82925 8.45567 5.95214 8.40539C6.07504 8.35511 6.20672 8.32981 6.3395 8.33096C6.47228 8.33212 6.6035 8.3597 6.7255 8.41211C6.84751 8.46452 6.95785 8.5407 7.0501 8.63621L12.0001 13.5862L16.9501 8.63621C17.1387 8.45406 17.3913 8.35326 17.6535 8.35554C17.9157 8.35782 18.1665 8.46299 18.3519 8.64839C18.5373 8.8338 18.6425 9.08462 18.6448 9.34681C18.6471 9.60901 18.5463 9.86161 18.3641 10.0502L12.7071 15.7072Z" fill="white"/>
</g>
<defs>
<clipPath id="clip0_169_4068">
<rect width="24" height="24" fill="white" transform="matrix(0 -1 1 0 0 24)"/>
</clipPath>
</defs>
</svg>
