<svg width="24" height="24" viewBox="0 0 24 24" fill="none" xmlns="http://www.w3.org/2000/svg">
<g clip-path="url(#clip0_169_4068)">
<path fill-rule="evenodd" clip-rule="evenodd" d="M13.1885 17.5162C12.8787 17.826 12.4585 18 12.0203 18C11.5821 18 11.1619 17.826 10.8521 17.5162L1.50446 8.1686C1.34664 8.01617 1.22075 7.83384 1.13415 7.63224C1.04755 7.43064 1.00197 7.21381 1.00006 6.99441C0.998156 6.775 1.03996 6.55742 1.12305 6.35434C1.20613 6.15127 1.32883 5.96678 1.48398 5.81163C1.63912 5.65648 1.82362 5.53378 2.02669 5.4507C2.22976 5.36762 2.44735 5.32581 2.66675 5.32771C2.88616 5.32962 3.10299 5.3752 3.30458 5.4618C3.50618 5.54841 3.68852 5.67429 3.84095 5.83211L12.0203 14.0115L20.1997 5.83211C20.5113 5.53111 20.9287 5.36456 21.362 5.36832C21.7952 5.37209 22.2097 5.54587 22.516 5.85224C22.8224 6.1586 22.9962 6.57305 22.9999 7.0063C23.0037 7.43955 22.8372 7.85695 22.5362 8.1686L13.1885 17.5162Z" fill="white"/>
</g>
<defs>
<clipPath id="clip0_169_4068">
<rect width="24" height="24" fill="white" transform="matrix(0 -1 1 0 0 24)"/>
</clipPath>
</defs>
</svg>
