<svg width="26" height="26" viewBox="0 0 26 26" fill="none" xmlns="http://www.w3.org/2000/svg">
<g clip-path="url(#clip0_559_3292)">
<path fill-rule="evenodd" clip-rule="evenodd" d="M16.67 12.2687C16.8639 12.4627 16.9728 12.7257 16.9728 12.9999C16.9728 13.2742 16.8639 13.5372 16.67 13.7311L10.8195 19.5816C10.7241 19.6804 10.61 19.7592 10.4838 19.8134C10.3577 19.8676 10.2219 19.8961 10.0846 19.8973C9.9473 19.8985 9.81112 19.8723 9.68402 19.8203C9.55692 19.7683 9.44145 19.6915 9.34434 19.5944C9.24724 19.4973 9.17045 19.3819 9.11844 19.2548C9.06644 19.1277 9.04028 18.9915 9.04147 18.8541C9.04266 18.7168 9.07119 18.5811 9.12539 18.4549C9.1796 18.3288 9.25838 18.2146 9.35716 18.1192L14.4765 12.9999L9.35716 7.88059C9.16877 7.68554 9.06453 7.4243 9.06689 7.15313C9.06924 6.88197 9.17801 6.62257 9.36976 6.43082C9.56151 6.23907 9.8209 6.1303 10.0921 6.12795C10.3632 6.12559 10.6245 6.22983 10.8195 6.41822L16.67 12.2687Z" fill="white"/>
</g>
<defs>
<clipPath id="clip0_559_3292">
<rect width="24.821" height="24.821" fill="white" transform="matrix(-1 0 0 -1 25.2467 25.4105)"/>
</clipPath>
</defs>
</svg>
