<svg width="24" height="24" viewBox="0 0 24 24" fill="none" xmlns="http://www.w3.org/2000/svg">
<g clip-path="url(#clip0_622_4530)">
<path d="M19.3333 8.00016C19.7 8.00016 20 8.30016 20 8.66683V15.3335C20 15.7002 19.7 16.0002 19.3333 16.0002H3.33333C2.96667 16.0002 2.66667 15.7002 2.66667 15.3335V8.66683C2.66667 8.30016 2.96667 8.00016 3.33333 8.00016H19.3333ZM3.33333 5.3335C1.49167 5.3335 0 6.82516 0 8.66683V15.3335C0 17.1752 1.49167 18.6668 3.33333 18.6668H19.3333C21.175 18.6668 22.6667 17.1752 22.6667 15.3335V14.6668C23.4042 14.6668 24 14.071 24 13.3335V10.6668C24 9.92933 23.4042 9.3335 22.6667 9.3335V8.66683C22.6667 6.82516 21.175 5.3335 19.3333 5.3335H3.33333ZM14.6667 9.3335H4V14.6668H14.6667V9.3335Z" fill="white"/>
</g>
<defs>
<clipPath id="clip0_622_4530">
<rect width="24" height="24" fill="white"/>
</clipPath>
</defs>
</svg>
