<svg width="24" height="24" viewBox="0 0 24 24" fill="none" xmlns="http://www.w3.org/2000/svg">
<g clip-path="url(#clip0_776_4725)">
<path d="M12 24C15.1826 24 18.2348 22.7357 20.4853 20.4853C22.7357 18.2348 24 15.1826 24 12C24 8.8174 22.7357 5.76516 20.4853 3.51472C18.2348 1.26428 15.1826 0 12 0C8.8174 0 5.76516 1.26428 3.51472 3.51472C1.26428 5.76516 0 8.8174 0 12C0 15.1826 1.26428 18.2348 3.51472 20.4853C5.76516 22.7357 8.8174 24 12 24ZM4.5375 14.7234C4.35938 14.0813 4.88438 13.5 5.55 13.5H18.45C19.1156 13.5 19.6453 14.0813 19.4625 14.7234C18.5719 17.9063 15.5672 20.25 12 20.25C8.43281 20.25 5.42813 17.9063 4.5375 14.7234ZM10.2 9.975L10.1906 9.96563C10.1812 9.95625 10.1719 9.94219 10.1578 9.92344C10.1297 9.88594 10.0828 9.82969 10.0266 9.76406C9.90937 9.63281 9.74531 9.45469 9.54844 9.28125C9.13594 8.91562 8.66719 8.625 8.25 8.625C7.83281 8.625 7.36406 8.91562 6.95156 9.28125C6.75469 9.45469 6.59063 9.63281 6.47344 9.76406C6.41719 9.82969 6.37031 9.88594 6.34219 9.92344C6.32813 9.94219 6.31406 9.95625 6.30938 9.96563L6.3 9.975C6.20156 10.1063 6.03281 10.1578 5.88281 10.1063C5.73281 10.0547 5.625 9.91406 5.625 9.75C5.625 8.91094 5.93906 8.08125 6.40313 7.4625C6.8625 6.85312 7.52344 6.375 8.25 6.375C8.97656 6.375 9.6375 6.85312 10.0969 7.4625C10.5609 8.08125 10.875 8.91094 10.875 9.75C10.875 9.90938 10.7719 10.0547 10.6172 10.1063C10.4625 10.1578 10.2938 10.1063 10.2 9.975ZM17.7 9.975L17.6906 9.96563C17.6812 9.95625 17.6719 9.94219 17.6578 9.92344C17.6297 9.88594 17.5828 9.82969 17.5266 9.76406C17.4094 9.63281 17.2453 9.45469 17.0484 9.28125C16.6359 8.91562 16.1672 8.625 15.75 8.625C15.3328 8.625 14.8641 8.91562 14.4516 9.28125C14.2547 9.45469 14.0906 9.63281 13.9734 9.76406C13.9172 9.82969 13.8703 9.88594 13.8422 9.92344C13.8281 9.94219 13.8141 9.95625 13.8094 9.96563L13.8 9.975C13.7016 10.1063 13.5328 10.1578 13.3828 10.1063C13.2328 10.0547 13.125 9.91406 13.125 9.75C13.125 8.91094 13.4391 8.08125 13.9031 7.4625C14.3625 6.85312 15.0234 6.375 15.75 6.375C16.4766 6.375 17.1375 6.85312 17.5969 7.4625C18.0609 8.08125 18.375 8.91094 18.375 9.75C18.375 9.90938 18.2719 10.0547 18.1172 10.1063C17.9625 10.1578 17.7938 10.1063 17.7 9.975Z" fill="white"/>
</g>
<defs>
<clipPath id="clip0_776_4725">
<rect width="24" height="24" fill="white"/>
</clipPath>
</defs>
</svg>
