<svg width="24" height="24" viewBox="0 0 24 24" fill="none" xmlns="http://www.w3.org/2000/svg">
<g clip-path="url(#clip0_776_4723)">
<path d="M12 24C15.1826 24 18.2348 22.7357 20.4853 20.4853C22.7357 18.2348 24 15.1826 24 12C24 8.8174 22.7357 5.76516 20.4853 3.51472C18.2348 1.26428 15.1826 0 12 0C8.8174 0 5.76516 1.26428 3.51472 3.51472C1.26428 5.76516 0 8.8174 0 12C0 15.1826 1.26428 18.2348 3.51472 20.4853C5.76516 22.7357 8.8174 24 12 24ZM7.72031 15.4078C8.75156 14.3766 10.2469 13.5 12 13.5C13.7531 13.5 15.2484 14.3766 16.2797 15.4078C16.8 15.9281 17.2219 16.5047 17.5172 17.0672C17.8078 17.6156 18 18.2109 18 18.75C18 18.9937 17.8781 19.2281 17.6766 19.3688C17.475 19.5094 17.2172 19.5422 16.9875 19.4531L16.0266 19.0922C14.7656 18.6187 13.425 18.375 12.075 18.375H11.925C10.575 18.375 9.23906 18.6187 7.97344 19.0922L7.0125 19.4531C6.78281 19.5375 6.525 19.5094 6.32344 19.3688C6.12187 19.2281 6 18.9984 6 18.75C6 18.2062 6.19688 17.6156 6.48281 17.0672C6.77813 16.5047 7.2 15.9281 7.72031 15.4078ZM6.25781 6.87656L10.4719 9.12188C10.9734 9.38906 10.9734 10.1109 10.4719 10.3781L6.25781 12.6234C5.8875 12.8203 5.4375 12.5531 5.4375 12.1312C5.4375 12 5.48438 11.8734 5.56875 11.775L7.25625 9.75L5.56875 7.725C5.48438 7.62656 5.4375 7.5 5.4375 7.36875C5.4375 6.94687 5.8875 6.67969 6.25781 6.87656ZM18.5625 7.36406C18.5625 7.49531 18.5156 7.62187 18.4313 7.72031L16.7438 9.74531L18.4313 11.7703C18.5156 11.8688 18.5625 11.9953 18.5625 12.1266C18.5625 12.5484 18.1125 12.8156 17.7422 12.6188L13.5281 10.3734C13.0266 10.1063 13.0266 9.38437 13.5281 9.11719L17.7422 6.87188C18.1125 6.675 18.5625 6.94219 18.5625 7.36406Z" fill="white"/>
</g>
<defs>
<clipPath id="clip0_776_4723">
<rect width="24" height="24" fill="white"/>
</clipPath>
</defs>
</svg>
