<svg width="24" height="24" viewBox="0 0 24 24" fill="none" xmlns="http://www.w3.org/2000/svg">
<path fill-rule="evenodd" clip-rule="evenodd" d="M9.6373 11.0774L11.2963 7.88713C12.1252 6.32144 13.0429 4.80433 14.0447 3.34321C15.46 4.87743 16.843 6.71995 17.8795 8.66084C18.9777 10.7192 19.6178 12.7555 19.6178 14.5804C19.6178 16.6755 18.2906 18.7353 16.4568 19.8848C16.542 19.4958 16.589 19.0729 16.589 18.6178C16.589 16.7753 15.5994 15.1882 14.9109 14.2677C14.4648 13.6757 13.9687 13.1231 13.4281 12.616L13.3928 12.5867L13.3811 12.5749L13.3781 12.5691L13.3767 12.5676C13.3723 12.5691 13.3723 12.5661 11.91 14.2134C12.3308 14.8178 12.8151 15.3755 13.3547 15.8768C13.8979 16.6608 14.3882 17.6386 14.3882 18.6178C14.3882 19.7483 13.9287 20.4912 13.4809 20.9478C13.2475 21.1856 13.0713 21.5057 13.0199 21.8287C12.9981 21.9569 12.9981 22.088 13.0199 22.2162C13.0368 22.309 13.0664 22.3989 13.108 22.4835C13.2739 22.8138 13.6116 23.0267 13.9801 22.9973C18.1437 22.6523 21.82 18.7837 21.82 14.5804C21.82 9.95722 18.6238 4.98167 15.4233 1.59465C15.2417 1.40497 15.0233 1.25439 14.7814 1.15215C14.5396 1.0499 14.2794 0.998142 14.0168 1.00005C13.7052 0.998033 13.3977 1.07117 13.1204 1.21327C12.8431 1.35537 12.6042 1.56224 12.4238 1.81634C11.2955 3.43829 10.2659 5.12678 9.34074 6.87264L7.93866 4.90973C7.80625 4.72519 7.63227 4.5744 7.4308 4.46955C7.22933 4.36469 7.00601 4.30871 6.7789 4.30614C6.55179 4.30357 6.32726 4.35447 6.12347 4.45474C5.91967 4.555 5.74233 4.70181 5.60577 4.8833C4.01136 7.05322 2 10.1745 2 14.5804C2 18.7837 5.67624 22.6523 9.83991 22.9973C10.2069 23.0267 10.5461 22.8138 10.7105 22.4835C10.7525 22.399 10.7822 22.3091 10.7986 22.2162C10.8208 22.0885 10.8213 21.958 10.8001 21.8301C10.739 21.4962 10.5783 21.1886 10.3391 20.9478C9.89129 20.4926 9.43323 19.7483 9.43323 18.6178C9.43323 17.64 9.92212 16.6608 10.4653 15.8768L10.5975 15.6889C11.2405 14.808 11.91 14.2134 11.91 14.2134L10.4463 12.5691H10.4418L10.4374 12.5735L10.4257 12.5837L10.3905 12.6146L10.2833 12.7173C9.78408 13.1966 9.32406 13.715 8.90763 14.2677C8.2176 15.1868 7.22954 16.7738 7.22954 18.6164C7.22954 19.0715 7.27799 19.4943 7.36167 19.8834C5.52943 18.7353 4.20222 16.6755 4.20222 14.5804C4.20222 11.3931 5.44574 8.98384 6.76414 7.05469L7.54813 8.15287L9.6373 11.0774ZM11.91 14.2134L13.3737 12.5676L11.91 11.2668L10.4463 12.5691L11.91 14.2134Z" fill="white"/>
</svg>
