<svg width="24" height="27" viewBox="0 0 24 27" fill="none" xmlns="http://www.w3.org/2000/svg">
<path fill-rule="evenodd" clip-rule="evenodd" d="M9.248 12.2027L11.2569 8.33962C12.2606 6.44373 13.3718 4.60666 14.5849 2.83739C16.2987 4.69517 17.9733 6.92628 19.2284 9.27651C20.5582 11.769 21.3333 14.2347 21.3333 16.4445C21.3333 18.9814 19.7262 21.4756 17.5058 22.8676C17.6089 22.3965 17.6658 21.8845 17.6658 21.3334C17.6658 19.1023 16.4676 17.1805 15.6338 16.0658C15.0936 15.349 14.4929 14.6799 13.8382 14.0658L13.7956 14.0303L13.7813 14.0161L13.7778 14.009L13.776 14.0072C13.7707 14.009 13.7707 14.0054 12 16.0001C12.5096 16.732 13.096 17.4072 13.7493 18.0143C14.4071 18.9636 15.0009 20.1476 15.0009 21.3334C15.0009 22.7023 14.4444 23.6018 13.9022 24.1547C13.6196 24.4427 13.4062 24.8303 13.344 25.2214C13.3175 25.3767 13.3175 25.5354 13.344 25.6907C13.3644 25.803 13.4003 25.9119 13.4507 26.0143C13.6516 26.4143 14.0604 26.6721 14.5067 26.6365C19.5484 26.2187 24 21.5343 24 16.4445C24 10.8463 20.1298 4.82139 16.2542 0.720062C16.0343 0.490381 15.7699 0.308043 15.477 0.184232C15.1841 0.0604221 14.8691 -0.00224963 14.5511 6.16778e-05C14.1738 -0.00238199 13.8015 0.0861849 13.4657 0.258254C13.1299 0.430322 12.8406 0.680819 12.6222 0.988506C11.2559 2.95252 10.0092 4.99712 8.88889 7.11117L7.19111 4.73428C7.03078 4.51083 6.82011 4.32824 6.57615 4.20127C6.33219 4.0743 6.06177 4.00652 5.78676 4.0034C5.51176 4.00029 5.23988 4.06193 4.9931 4.18334C4.74632 4.30475 4.53158 4.48252 4.36622 4.70228C2.43556 7.32984 0 11.1094 0 16.4445C0 21.5343 4.45156 26.2187 9.49333 26.6365C9.93778 26.6721 10.3484 26.4143 10.5476 26.0143C10.5984 25.9121 10.6343 25.8031 10.6542 25.6907C10.6811 25.5361 10.6817 25.378 10.656 25.2232C10.5821 24.8188 10.3875 24.4463 10.0978 24.1547C9.55556 23.6036 9.00089 22.7023 9.00089 21.3334C9.00089 20.1494 9.59289 18.9636 10.2507 18.0143L10.4107 17.7867C11.1893 16.7201 12 16.0001 12 16.0001L10.2276 14.009H10.2222L10.2169 14.0143L10.2027 14.0267L10.16 14.0641L10.0302 14.1885C9.42573 14.7688 8.86869 15.3966 8.36444 16.0658C7.52889 17.1787 6.33244 19.1005 6.33244 21.3316C6.33244 21.8827 6.39111 22.3947 6.49244 22.8658C4.27378 21.4756 2.66667 18.9814 2.66667 16.4445C2.66667 12.585 4.17244 9.66762 5.76889 7.33162L6.71822 8.6614L9.248 12.2027ZM12 16.0001L13.7724 14.0072L12 12.4321L10.2276 14.009L12 16.0001Z" fill="white"/>
</svg>
