<svg width="24" height="24" viewBox="0 0 24 24" fill="none" xmlns="http://www.w3.org/2000/svg">
<path d="M23 7.875C23 7.11875 22.3813 6.5 21.625 6.5H17.5V2.375C17.5 1.61875 16.8813 1 16.125 1C15.3687 1 14.75 1.61875 14.75 2.375V6.5H9.25V2.375C9.25 1.61875 8.63125 1 7.875 1C7.11875 1 6.5 1.61875 6.5 2.375V6.5H2.375C1.61875 6.5 1 7.11875 1 7.875C1 8.63125 1.61875 9.25 2.375 9.25H6.5V14.75H2.375C1.61875 14.75 1 15.3687 1 16.125C1 16.8813 1.61875 17.5 2.375 17.5H6.5V21.625C6.5 22.3813 7.11875 23 7.875 23C8.63125 23 9.25 22.3813 9.25 21.625V17.5H14.75V21.625C14.75 22.3813 15.3687 23 16.125 23C16.8813 23 17.5 22.3813 17.5 21.625V17.5H21.625C22.3813 17.5 23 16.8813 23 16.125C23 15.3687 22.3813 14.75 21.625 14.75H17.5V9.25H21.625C22.3813 9.25 23 8.63125 23 7.875ZM14.75 14.75H9.25V9.25H14.75V14.75Z" fill="white"/>
</svg>
