<svg width="24" height="24" viewBox="0 0 24 24" fill="none" xmlns="http://www.w3.org/2000/svg">
<path d="M13.2037 2.86583C12.8733 2.56899 12.4448 2.40479 12.0007 2.40479C11.5565 2.40479 11.1281 2.56899 10.7977 2.86583L4.1977 8.79623C4.00983 8.96488 3.85953 9.17115 3.75658 9.40167C3.65362 9.63218 3.60031 9.88177 3.6001 10.1342V18.6002C3.6001 19.0776 3.78974 19.5355 4.12731 19.873C4.46487 20.2106 4.92271 20.4002 5.4001 20.4002H7.8001C8.27749 20.4002 8.73532 20.2106 9.07289 19.873C9.41046 19.5355 9.6001 19.0776 9.6001 18.6002V13.8002C9.6001 13.6411 9.66331 13.4885 9.77583 13.376C9.88835 13.2634 10.041 13.2002 10.2001 13.2002H13.8001C13.9592 13.2002 14.1118 13.2634 14.2244 13.376C14.3369 13.4885 14.4001 13.6411 14.4001 13.8002V18.6002C14.4001 19.0776 14.5897 19.5355 14.9273 19.873C15.2649 20.2106 15.7227 20.4002 16.2001 20.4002H18.6001C19.0775 20.4002 19.5353 20.2106 19.8729 19.873C20.2105 19.5355 20.4001 19.0776 20.4001 18.6002V10.1342C20.4 9.88186 20.3469 9.63233 20.2442 9.40182C20.1414 9.17131 19.9914 8.96499 19.8037 8.79623L13.2037 2.86583Z" fill="white"/>
</svg>
