<svg width="24" height="24" viewBox="0 0 24 24" fill="none" xmlns="http://www.w3.org/2000/svg">
<path d="M13.4967 10.5031L10.5002 10.5005L2.12043 10.5005C1.72272 10.5005 1.34131 10.6584 1.06009 10.9397C0.778873 11.2209 0.620886 11.6023 0.620886 12C0.620886 12.3977 0.778873 12.7791 1.06009 13.0603C1.34131 13.3416 1.72272 13.4995 2.12043 13.4995L10.5002 13.4995L13.5 13.5L21.8791 13.4995C22.2768 13.4995 22.6582 13.3416 22.9394 13.0603C23.2206 12.7791 23.3786 12.3977 23.3786 12C23.3786 11.6023 23.2206 11.2209 22.9394 10.9397C22.6582 10.6584 22.2768 10.5005 21.8791 10.5005L13.4967 10.5031Z" fill="white"/>
</svg>
