<svg width="24" height="24" viewBox="0 0 24 24" fill="none" xmlns="http://www.w3.org/2000/svg">
<path d="M13.4969 10.5031V2.12332C13.4972 1.72597 13.3397 1.34475 13.059 1.06353C12.7783 0.78231 12.3974 0.624126 12 0.623775C11.6026 0.623425 11.2214 0.780936 10.9402 1.06166C10.659 1.34238 10.5008 1.72332 10.5005 2.12067L10.5005 10.5005L2.12067 10.5005C1.72297 10.5005 1.34155 10.6584 1.06034 10.9397C0.779117 11.2209 0.621131 11.6023 0.621131 12C0.621131 12.3977 0.779117 12.7791 1.06034 13.0603C1.34155 13.3416 1.72297 13.4995 2.12067 13.4995L10.5005 13.4995L10.5005 21.8793C10.5005 22.277 10.6584 22.6584 10.9397 22.9397C11.2209 23.2209 11.6023 23.3789 12 23.3789C12.3977 23.3789 12.7791 23.2209 13.0603 22.9397C13.3416 22.6584 13.4995 22.277 13.4995 21.8793L13.4995 13.4995L21.8793 13.4995C22.277 13.4995 22.6584 13.3416 22.9397 13.0603C23.2209 12.7791 23.3789 12.3977 23.3789 12C23.3789 11.6023 23.2209 11.2209 22.9397 10.9397C22.6584 10.6584 22.277 10.5005 21.8793 10.5005L13.4969 10.5031Z" fill="white"/>
</svg>
