<svg width="24" height="24" viewBox="0 0 24 24" fill="none" xmlns="http://www.w3.org/2000/svg">
<path d="M21 19.497C21 19.7721 20.9243 20.0419 20.7813 20.2769C20.6383 20.5119 20.4334 20.703 20.189 20.8293C19.9446 20.9557 19.6702 21.0124 19.3958 20.9933C19.1214 20.9742 18.8575 20.88 18.633 20.721L8.133 13.2765C7.93795 13.1386 7.77867 12.9561 7.6684 12.7442C7.55813 12.5323 7.50006 12.2971 7.49904 12.0582C7.49801 11.8193 7.55405 11.5837 7.66249 11.3708C7.77094 11.158 7.92865 10.9741 8.1225 10.8345L18.6225 3.279C18.8465 3.11743 19.1108 3.02084 19.3862 2.99988C19.6616 2.97891 19.9374 3.0344 20.1833 3.1602C20.4291 3.28601 20.6355 3.47726 20.7796 3.71287C20.9237 3.94848 21 4.21931 21 4.4955L21 19.497ZM3 20.25C3 20.4489 3.07902 20.6397 3.21967 20.7803C3.36032 20.921 3.55109 21 3.75 21C3.94891 21 4.13968 20.921 4.28033 20.7803C4.42098 20.6397 4.5 20.4489 4.5 20.25L4.5 3.75C4.5 3.55109 4.42098 3.36032 4.28033 3.21967C4.13968 3.07902 3.94891 3 3.75 3C3.55109 3 3.36032 3.07902 3.21967 3.21967C3.07902 3.36032 3 3.55109 3 3.75L3 20.25Z" fill="white"/>
</svg>
