<svg width="24" height="24" viewBox="0 0 24 24" fill="none" xmlns="http://www.w3.org/2000/svg">
<path d="M3.0008 12.4509C3.00259 10.7486 3.67963 9.1165 4.88336 7.91277C6.0871 6.70904 7.7192 6.03199 9.42153 6.0302H17.7854L17.488 5.73367C17.3937 5.63936 17.3189 5.52741 17.2679 5.4042C17.2168 5.28098 17.1906 5.14892 17.1906 5.01556C17.1906 4.88219 17.2168 4.75013 17.2679 4.62692C17.3189 4.50371 17.3937 4.39175 17.488 4.29745C17.5823 4.20315 17.6943 4.12834 17.8175 4.0773C17.9407 4.02627 18.0727 4 18.2061 4C18.3395 4 18.4715 4.02627 18.5947 4.0773C18.718 4.12834 18.8299 4.20315 18.9242 4.29745L20.9518 6.32505C21.0463 6.41924 21.1213 6.53115 21.1725 6.65438C21.2237 6.77761 21.25 6.90973 21.25 7.04316C21.25 7.17659 21.2237 7.30871 21.1725 7.43194C21.1213 7.55517 21.0463 7.66708 20.9518 7.76127L18.9242 9.78887C18.7338 9.97932 18.4755 10.0863 18.2061 10.0863C17.9368 10.0863 17.6785 9.97932 17.488 9.78887C17.2975 9.59841 17.1906 9.3401 17.1906 9.07076C17.1906 8.80142 17.2975 8.5431 17.488 8.35265L17.7854 8.0578H9.42153C8.25681 8.05915 7.14018 8.52242 6.3166 9.346C5.49302 10.1696 5.02974 11.2862 5.0284 12.4509C5.0284 12.7198 4.92159 12.9777 4.73146 13.1678C4.54134 13.3579 4.28348 13.4647 4.0146 13.4647C3.74572 13.4647 3.48786 13.3579 3.29773 13.1678C3.10761 12.9777 3.0008 12.7198 3.0008 12.4509ZM20.2354 11.4371C19.9665 11.4371 19.7087 11.5439 19.5185 11.7341C19.3284 11.9242 19.2216 12.1821 19.2216 12.4509C19.2203 13.6157 18.757 14.7323 17.9334 15.5559C17.1098 16.3795 15.9932 16.8427 14.8285 16.8441H6.46462L6.762 16.5475C6.8563 16.4532 6.93111 16.3413 6.98214 16.2181C7.03318 16.0948 7.05945 15.9628 7.05945 15.8294C7.05945 15.6961 7.03318 15.564 6.98214 15.4408C6.93111 15.3176 6.8563 15.2056 6.762 15.1113C6.66769 15.017 6.55574 14.9422 6.43253 14.8912C6.30931 14.8401 6.17725 14.8139 6.04389 14.8139C5.91052 14.8139 5.77847 14.8401 5.65525 14.8912C5.53204 14.9422 5.42008 15.017 5.32578 15.1113L3.29818 17.1389C3.20367 17.2331 3.12868 17.345 3.07751 17.4683C3.02634 17.5915 3 17.7236 3 17.857C3 17.9905 3.02634 18.1226 3.07751 18.2458C3.12868 18.369 3.20367 18.4809 3.29818 18.5751L5.32578 20.6027C5.42008 20.697 5.53204 20.7718 5.65525 20.8229C5.77847 20.8739 5.91052 20.9002 6.04389 20.9002C6.17725 20.9002 6.30931 20.8739 6.43253 20.8229C6.55574 20.7718 6.66769 20.697 6.762 20.6027C6.8563 20.5084 6.93111 20.3965 6.98214 20.2733C7.03318 20.15 7.05945 20.018 7.05945 19.8846C7.05945 19.7513 7.03318 19.6192 6.98214 19.496C6.93111 19.3728 6.8563 19.2608 6.762 19.1665L6.46462 18.8717H14.8285C16.5308 18.8699 18.1629 18.1928 19.3666 16.9891C20.5704 15.7854 21.2474 14.1533 21.2492 12.4509C21.2492 12.1821 21.1424 11.9242 20.9523 11.7341C20.7621 11.5439 20.5043 11.4371 20.2354 11.4371Z" fill="white"/>
</svg>
