<svg width="24" height="24" viewBox="0 0 24 24" fill="none" xmlns="http://www.w3.org/2000/svg">
<path d="M13.375 2.375C13.375 1.61445 12.7605 1 12 1C11.2395 1 10.625 1.61445 10.625 2.375V12.8035L7.47109 9.64961C6.93398 9.1125 6.06172 9.1125 5.52461 9.64961C4.9875 10.1867 4.9875 11.059 5.52461 11.5961L11.0246 17.0961C11.5617 17.6332 12.434 17.6332 12.9711 17.0961L18.4711 11.5961C19.0082 11.059 19.0082 10.1867 18.4711 9.64961C17.934 9.1125 17.0617 9.1125 16.5246 9.64961L13.375 12.8035V2.375ZM3.75 16.125C2.2332 16.125 1 17.3582 1 18.875V20.25C1 21.7668 2.2332 23 3.75 23H20.25C21.7668 23 23 21.7668 23 20.25V18.875C23 17.3582 21.7668 16.125 20.25 16.125H15.8887L13.9422 18.0715C12.868 19.1457 11.1277 19.1457 10.0535 18.0715L8.11133 16.125H3.75ZM19.5625 18.5312C19.836 18.5312 20.0983 18.6399 20.2917 18.8333C20.4851 19.0267 20.5938 19.289 20.5938 19.5625C20.5938 19.836 20.4851 20.0983 20.2917 20.2917C20.0983 20.4851 19.836 20.5938 19.5625 20.5938C19.289 20.5938 19.0267 20.4851 18.8333 20.2917C18.6399 20.0983 18.5312 19.836 18.5312 19.5625C18.5312 19.289 18.6399 19.0267 18.8333 18.8333C19.0267 18.6399 19.289 18.5312 19.5625 18.5312Z" fill="white"/>
</svg>
