<svg width="24" height="24" viewBox="0 0 24 24" fill="none" xmlns="http://www.w3.org/2000/svg">
<g clip-path="url(#clip0_612_4522)">
<path fill-rule="evenodd" clip-rule="evenodd" d="M10.8115 6.4838C11.1213 6.17402 11.5415 6 11.9797 6C12.4179 6 12.8381 6.17402 13.1479 6.4838L22.4955 15.8314C22.6534 15.9838 22.7792 16.1662 22.8658 16.3678C22.9524 16.5694 22.998 16.7862 22.9999 17.0056C23.0018 17.225 22.96 17.4426 22.877 17.6457C22.7939 17.8487 22.6712 18.0332 22.516 18.1884C22.3609 18.3435 22.1764 18.4662 21.9733 18.5493C21.7702 18.6324 21.5526 18.6742 21.3332 18.6723C21.1138 18.6704 20.897 18.6248 20.6954 18.5382C20.4938 18.4516 20.3115 18.3257 20.1591 18.1679L11.9797 9.98853L3.80033 18.1679C3.48869 18.4689 3.07129 18.6354 2.63804 18.6317C2.20479 18.6279 1.79034 18.4541 1.48398 18.1478C1.17761 17.8414 1.00383 17.427 1.00006 16.9937C0.996297 16.5604 1.16285 16.143 1.46385 15.8314L10.8115 6.4838Z" fill="white"/>
</g>
<defs>
<clipPath id="clip0_612_4522">
<rect width="24" height="24" fill="white" transform="matrix(0 1 -1 0 24 0)"/>
</clipPath>
</defs>
</svg>
