<svg width="24" height="24" viewBox="0 0 24 24" fill="none" xmlns="http://www.w3.org/2000/svg">
<g clip-path="url(#clip0_917_5231)">
<path d="M5.4 2.3999C6.19565 2.3999 6.95871 2.71597 7.52132 3.27858C8.08393 3.84119 8.4 4.60425 8.4 5.3999C8.4 6.19555 8.08393 6.95861 7.52132 7.52122C6.95871 8.08383 6.19565 8.3999 5.4 8.3999C4.60435 8.3999 3.84129 8.08383 3.27868 7.52122C2.71607 6.95861 2.4 6.19555 2.4 5.3999C2.4 4.60425 2.71607 3.84119 3.27868 3.27858C3.84129 2.71597 4.60435 2.3999 5.4 2.3999ZM19.2 2.3999C19.9957 2.3999 20.7587 2.71597 21.3213 3.27858C21.8839 3.84119 22.2 4.60425 22.2 5.3999C22.2 6.19555 21.8839 6.95861 21.3213 7.52122C20.7587 8.08383 19.9957 8.3999 19.2 8.3999C18.4044 8.3999 17.6413 8.08383 17.0787 7.52122C16.5161 6.95861 16.2 6.19555 16.2 5.3999C16.2 4.60425 16.5161 3.84119 17.0787 3.27858C17.6413 2.71597 18.4044 2.3999 19.2 2.3999ZM0 13.6012C0 11.3924 1.7925 9.5999 4.00125 9.5999H5.6025C6.19875 9.5999 6.765 9.73115 7.275 9.96365C7.22625 10.2337 7.20375 10.5149 7.20375 10.7999C7.20375 12.2324 7.83375 13.5187 8.8275 14.3999C8.82 14.3999 8.8125 14.3999 8.80125 14.3999H0.79875C0.36 14.3999 0 14.0399 0 13.6012ZM15.1988 14.3999C15.1913 14.3999 15.1838 14.3999 15.1725 14.3999C16.17 13.5187 16.7963 12.2324 16.7963 10.7999C16.7963 10.5149 16.77 10.2374 16.725 9.96365C17.235 9.7274 17.8013 9.5999 18.3975 9.5999H19.9988C22.2075 9.5999 24 11.3924 24 13.6012C24 14.0437 23.64 14.3999 23.2013 14.3999H15.1988ZM8.4 10.7999C8.4 9.84512 8.77929 8.92945 9.45442 8.25432C10.1295 7.57919 11.0452 7.1999 12 7.1999C12.9548 7.1999 13.8705 7.57919 14.5456 8.25432C15.2207 8.92945 15.6 9.84512 15.6 10.7999C15.6 11.7547 15.2207 12.6704 14.5456 13.3455C13.8705 14.0206 12.9548 14.3999 12 14.3999C11.0452 14.3999 10.1295 14.0206 9.45442 13.3455C8.77929 12.6704 8.4 11.7547 8.4 10.7999ZM4.8 20.5987C4.8 17.8387 7.03875 15.5999 9.79875 15.5999H14.2013C16.9613 15.5999 19.2 17.8387 19.2 20.5987C19.2 21.1499 18.7538 21.5999 18.1988 21.5999H5.80125C5.25 21.5999 4.8 21.1537 4.8 20.5987Z" fill="white"/>
</g>
<defs>
<clipPath id="clip0_917_5231">
<rect width="24" height="24" fill="white"/>
</clipPath>
</defs>
</svg>
