<svg xmlns="http://www.w3.org/2000/svg" xmlns:xlink="http://www.w3.org/1999/xlink" viewBox="0 0 64.21 43.35"><defs><style>.cls-1{fill:#d4d4d5;}.cls-2{fill:#d85b16;}.cls-3{fill:#fff;}.cls-4{fill:#cf4f19;}.cls-5{fill:#9c9b9b;}.cls-6{isolation:isolate;}.cls-7{clip-path:url(#clip-path);}.cls-8{fill:#ec6417;}</style><clipPath id="clip-path"><path id="SVGID" class="cls-1" d="M0,31.1V27c0,.87.77,1.76,2.3,2.67v4.08C.76,32.86,0,32,0,31.1Z"/></clipPath></defs><g id="Warstwa_2" data-name="Warstwa 2"><g id="Warstwa_16" data-name="Warstwa 16"><polygon class="cls-2" points="51.44 6.66 51.43 10.73 46.54 7.83 46.55 3.76 51.44 6.66"/><polygon class="cls-2" points="55.5 6.7 55.49 10.77 51.43 10.73 51.44 6.66 55.5 6.7"/><polygon class="cls-3" points="55.51 5.28 55.49 9.35 55.49 10.77 55.5 6.7 55.51 5.28"/><polygon class="cls-2" points="41.55 13.17 41.54 17.25 32.66 11.97 32.67 7.9 41.55 13.17"/><polygon class="cls-2" points="43.99 13.2 43.98 17.27 41.54 17.25 41.55 13.17 43.99 13.2"/><polygon class="cls-3" points="44.03 10.84 44.02 14.92 43.98 17.27 43.99 13.2 44.03 10.84"/><polygon class="cls-2" points="60.93 12.29 60.92 16.37 56.62 13.81 56.63 9.74 60.93 12.29"/><polygon class="cls-2" points="64.15 12.31 64.14 16.39 60.92 16.37 60.93 12.29 64.15 12.31"/><polygon class="cls-3" points="64.21 10.44 64.2 14.52 64.14 16.39 64.15 12.31 64.21 10.44"/><polygon class="cls-3" points="64.17 13.01 64.16 17.09 64.11 18.96 64.12 14.88 64.17 13.01"/><polygon class="cls-2" points="50.24 18.33 50.23 22.41 45.14 19.39 45.15 15.31 50.24 18.33"/><polygon class="cls-3" points="53.52 16.48 53.51 20.55 53.46 22.42 53.47 18.35 53.52 16.48"/><polygon class="cls-2" points="53.47 18.35 53.46 22.42 50.23 22.41 50.24 18.33 53.47 18.35"/><polygon class="cls-2" points="57.95 18.37 57.93 22.45 54.7 22.43 54.71 18.35 57.95 18.37"/><polygon class="cls-4" points="64.12 14.88 64.11 18.96 57.93 22.45 57.95 18.37 64.12 14.88"/><polygon class="cls-3" points="32.19 13.45 32.18 17.52 31.98 17.6 32 13.52 32.19 13.45"/><polygon class="cls-3" points="24.88 17.54 24.87 21.62 24.74 21.73 24.75 17.65 24.88 17.54"/><polygon class="cls-3" points="27.41 18.72 27.4 22.79 24.87 21.62 24.88 17.54 27.41 18.72"/><polygon class="cls-1" points="48.17 23.89 48.16 27.97 32.18 17.52 32.19 13.45 48.17 23.89"/><polygon class="cls-1" points="40.45 22.51 40.44 26.59 24.67 16.27 24.68 12.2 40.45 22.51"/><polygon class="cls-5" points="51.67 21.92 51.66 26 48.16 27.97 48.17 23.89 51.67 21.92"/><polygon class="cls-1" points="43.6 26.48 43.58 30.56 27.4 22.79 27.41 18.72 43.6 26.48"/><polygon class="cls-5" points="47.06 24.52 47.05 28.6 43.58 30.56 43.6 26.48 47.06 24.52"/><polygon class="cls-1" points="38.93 29.12 38.91 33.2 17.36 20.4 17.38 16.33 38.93 29.12"/><polygon class="cls-5" points="42.42 27.15 42.41 31.22 38.91 33.2 38.93 29.12 42.42 27.15"/><polygon class="cls-1" points="21.34 24.58 21.33 28.65 12.88 22.94 12.89 18.86 21.34 24.58"/><polygon class="cls-1" points="23.49 26.07 23.48 30.14 21.33 28.65 21.34 24.58 23.49 26.07"/><polygon class="cls-1" points="25 29.21 24.99 33.29 7.42 26.02 7.43 21.95 25 29.21"/><polygon class="cls-1" points="31.71 33.2 31.7 37.27 24.99 33.29 25 29.21 31.71 33.2"/><polygon class="cls-5" points="35.43 31.1 35.42 35.17 31.7 37.27 31.71 33.2 35.43 31.1"/><path class="cls-1" d="M6,30H6a2.12,2.12,0,0,1,.52.14h0a3.92,3.92,0,0,1,.58.29V26.39a3.84,3.84,0,0,0-.57-.29h0L6.27,26,6.1,26,6,26h-.5l-.17,0a1,1,0,0,0-.24.11H5a1,1,0,0,0-.15.11l-.06.06h0l0,.06a.08.08,0,0,0,0,0,.17.17,0,0,0,0,.05v0h0l0,4.08a.32.32,0,0,1,.08-.21h0a.75.75,0,0,1,.23-.19A1.69,1.69,0,0,1,5.48,30h0A1.54,1.54,0,0,1,6,30Z"/><polygon class="cls-1" points="11.34 28.91 11.33 32.98 7.08 30.46 7.09 26.39 11.34 28.91"/><polygon class="cls-5" points="15.09 26.79 15.08 30.86 11.33 32.98 11.34 28.91 15.09 26.79"/><g class="cls-6"><path id="SVGID-2" data-name="SVGID" class="cls-1" d="M0,31.1V27c0,.87.77,1.76,2.3,2.67v4.08C.76,32.86,0,32,0,31.1Z"/><g class="cls-7"><g class="cls-6"><path class="cls-1" d="M2.31,29.69v4.08C.76,32.86,0,32,0,31.1V27c0,.87.77,1.76,2.3,2.67"/></g></g></g><polygon class="cls-1" points="15.77 32.58 15.76 36.65 12.87 34.93 12.88 30.86 15.77 32.58"/><polygon class="cls-5" points="16.8 32 16.78 36.07 15.76 36.65 15.77 32.58 16.8 32"/><polygon class="cls-1" points="21.23 34.63 21.21 38.7 16.78 36.07 16.8 32 21.23 34.63"/><path class="cls-1" d="M21.23,34.63V38.7c.57.34.85.64.85.9V35.52C22.08,35.26,21.8,35,21.23,34.63Z"/><polygon class="cls-3" points="23.19 35.69 23.18 39.77 23.06 39.84 23.07 35.76 23.19 35.69"/><polygon class="cls-1" points="25.42 36.75 25.41 40.83 23.18 39.77 23.19 35.69 25.42 36.75"/><polygon class="cls-5" points="28.73 34.88 28.71 38.96 25.41 40.83 25.42 36.75 28.73 34.88"/><polygon class="cls-1" points="15.45 37.5 15.44 41.57 2.3 33.77 2.31 29.69 15.45 37.5"/><path class="cls-5" d="M24,37.64h0a1.44,1.44,0,0,1-.22.37v0a2.33,2.33,0,0,1-.28.26,2.05,2.05,0,0,1-.32.24,2.33,2.33,0,0,1-.26.17,3.73,3.73,0,0,1-.74.33,3.44,3.44,0,0,1-.72.17l-.09,0a5,5,0,0,1-.78,0h0a5.08,5.08,0,0,1-.85-.08h-.1a7.46,7.46,0,0,1-.88-.21l-.32-.1-.68-.24L17,38.3c-.12-.06-.24-.1-.37-.17-.37-.19-.76-.4-1.16-.63v4.07c.4.24.79.45,1.16.64l.37.16a7.83,7.83,0,0,0,.73.33l.05,0c.21.09.42.15.63.22l.32.11h0l.61.15.25,0,.1,0,.1,0,.38,0,.34,0h.33l.33,0,.17,0h.09l.12,0a3.77,3.77,0,0,0,.58-.14h0a5.4,5.4,0,0,0,.74-.33l.12-.07.14-.1c.11-.08.23-.16.32-.24l.08-.06a1.8,1.8,0,0,0,.19-.21l0,0h0l.13-.2a1.19,1.19,0,0,0,.08-.16h0a.84.84,0,0,0,.05-.17.55.55,0,0,0,0-.18v0l0-4.08A1,1,0,0,1,24,37.64Z"/><polygon class="cls-8" points="46.55 3.76 46.62 0 55.51 5.28 55.5 6.7 51.44 6.66 46.55 3.76"/><polygon class="cls-8" points="44.03 10.84 43.99 13.2 41.55 13.17 32.67 7.9 39.15 7.95 44.03 10.84"/><polygon class="cls-8" points="56.63 9.74 56.7 7.41 59.11 7.42 64.21 10.44 64.15 12.31 60.93 12.29 56.63 9.74"/><polygon class="cls-8" points="49.23 13.93 53.52 16.48 53.47 18.35 50.24 18.33 45.15 15.31 45.19 13.91 49.23 13.93"/><polygon class="cls-8" points="54.77 16.48 60.94 13 64.17 13.01 64.12 14.88 57.95 18.37 54.71 18.35 54.77 16.48"/><polygon class="cls-3" points="30.12 9.13 51.67 21.92 48.17 23.89 32.19 13.45 32 13.52 47.06 24.52 43.6 26.48 27.41 18.72 24.88 17.54 24.75 17.65 27.07 18.91 42.42 27.15 38.93 29.12 17.38 16.33 22.78 13.27 40.29 22.6 40.45 22.51 24.68 12.2 30.12 9.13"/><polygon class="cls-3" points="16.64 16.74 28.72 27.11 35.43 31.1 31.71 33.2 25 29.21 7.43 21.95 11.14 19.85 23.33 26.16 23.49 26.07 21.34 24.58 12.89 18.86 16.64 16.74"/><path class="cls-3" d="M2.17,24.39A9.23,9.23,0,0,1,6.6,23.18a9.05,9.05,0,0,1,4.76,1.4l3.73,2.21-3.75,2.12L7.09,26.39a2,2,0,0,0-2-.28c-.53.29-.39.69.43,1.17l14.16,8.41a2,2,0,0,0,2.05.3c.62-.35.46-.8-.48-1.36L16.79,32l-1,.57-2.89-1.71,4.64-2.63,11.21,6.65-3.31,1.87-2.23-1.06-.12.07a1.87,1.87,0,0,1,1,1.47c0,.54-.39,1-1.17,1.48q-2.76,1.56-7.44-1.21L2.31,29.69C.71,28.74-.06,27.81,0,26.9S.81,25.15,2.17,24.39Z"/></g></g></svg>